<svg xmlns="http://www.w3.org/2000/svg" width="64" height="64" viewBox="0 0 44 44">
  <defs>
    <linearGradient id="g" x1="0" y1="0" x2="0" y2="1">
      <stop offset="0%" stop-color="#E8C547"/>
      <stop offset="40%" stop-color="#D4AF37"/>
      <stop offset="100%" stop-color="#B8860B"/>
    </linearGradient>
  </defs>
  <rect width="44" height="44" rx="12" fill="#1a1814"/>
  <path d="M22 3L40 13v18L22 41 4 31V13L22 3Z" fill="url(#g)"/>
  <path d="M22 3L4 13 22 23 40 13 22 3Z" fill="rgba(255,255,255,0.12)"/>
  <path d="M4 13v18l7-5 11-14Z" fill="rgba(0,0,0,0.1)"/>
  <path d="M40 13v18l-7-5L22 13Z" fill="rgba(0,0,0,0.04)"/>
  <path d="M11 31l-7-5 7-5 11 10Z" fill="rgba(0,0,0,0.08)"/>
  <path d="M33 31l7-5-7-5-11 10Z" fill="rgba(0,0,0,0.02)"/>
  <path d="M28.4 16H18.6a2.6 2.6 0 0 0-2.6 2.6v6.8a2.6 2.6 0 0 0 2.6 2.6h9.8" stroke="#1a1814" stroke-width="3" stroke-linecap="round" stroke-linejoin="round" fill="none"/>
</svg>
